<svg xmlns="http://www.w3.org/2000/svg" width="13.499" height="12" viewBox="0 0 13.499 12">
  <path id="Trazado_6" data-name="Trazado 6" d="M339.434,2749.4l1.108-4.875a.562.562,0,0,0-.548-.687h-9.206l-.215-1.05a.562.562,0,0,0-.551-.45h-2.4a.562.562,0,0,0-.562.563v.375a.562.562,0,0,0,.562.562h1.638l1.646,8.049a1.313,1.313,0,1,0,1.572.2h4.913a1.312,1.312,0,1,0,1.491-.244l.129-.569a.562.562,0,0,0-.548-.687h-6.291l-.154-.75h6.871A.562.562,0,0,0,339.434,2749.4Z" transform="translate(-327.057 -2742.34)" fill="#fff"/>
</svg>
